<svg width="38" height="38" viewBox="0 0 38 38" fill="none" xmlns="http://www.w3.org/2000/svg">
<path d="M37.7793 18.71C37.7793 29.0419 29.4056 37.4199 19.0693 37.4199C8.73303 37.4199 0.359375 29.0463 0.359375 18.71C0.359375 8.37366 8.73736 0 19.0693 0C29.4013 0 37.7793 8.37798 37.7793 18.71Z" fill="#FF9A00"/>
<path d="M26.304 26.2757C26.0792 26.2757 25.8588 26.1935 25.6815 26.0293C24.1598 24.6113 22.0891 23.7813 19.8498 23.6948C17.3597 23.5997 14.9907 24.447 13.3437 26.0206C12.9805 26.3708 12.4013 26.3535 12.0511 25.9904C11.7009 25.6272 11.7139 25.0436 12.0814 24.6978C14.0829 22.787 16.9447 21.7538 19.919 21.8662C22.5949 21.97 25.085 22.9686 26.9309 24.6891C27.3027 25.035 27.3199 25.6143 26.9784 25.9817C26.7969 26.1762 26.5548 26.2714 26.3084 26.2714L26.304 26.2757Z" fill="black"/>
<path d="M30.8044 20.9238C30.7482 20.9238 30.692 20.9151 30.6315 20.8978L26.6586 19.7393C26.4209 19.6701 26.248 19.4626 26.222 19.2118C26.1961 18.9654 26.3258 18.7277 26.5506 18.6109C26.5506 18.6109 29.6415 17.0114 30.5666 16.5186C30.8649 16.3587 31.2324 16.4711 31.3923 16.7693C31.5523 17.0676 31.4399 17.4351 31.1416 17.595C30.6228 17.8717 29.421 18.4985 28.4657 18.9914L30.9773 19.7263C31.3016 19.8214 31.4874 20.1586 31.3923 20.4828C31.3145 20.7508 31.0724 20.9238 30.8087 20.9238H30.8044Z" fill="black"/>
<path d="M8.38298 20.9238C8.11928 20.9238 7.87719 20.7508 7.79938 20.4828C7.70427 20.1586 7.89016 19.8214 8.21438 19.7263L10.726 18.9914C9.77066 18.4942 8.56887 17.8717 8.05011 17.595C7.75182 17.4351 7.63943 17.0676 7.79938 16.7693C7.95933 16.4711 8.32678 16.3587 8.62507 16.5186C9.55019 17.0114 12.6411 18.6109 12.6411 18.6109C12.8616 18.7277 12.9913 18.9654 12.9697 19.2118C12.9437 19.4583 12.7708 19.6701 12.5331 19.7393L8.56022 20.8978C8.50402 20.9151 8.44783 20.9238 8.38731 20.9238H8.38298Z" fill="black"/>
<path d="M31.6998 14.4222C31.6696 14.4222 31.6393 14.4222 31.6047 14.4135C28.5613 13.9423 27.0353 11.4782 26.9705 11.3701C26.7975 11.0805 26.8883 10.7087 27.1736 10.5315C27.4633 10.3542 27.8351 10.4493 28.0123 10.7346C28.0339 10.7692 29.3308 12.8227 31.7906 13.2031C32.1235 13.255 32.3526 13.5662 32.3007 13.8991C32.2532 14.2017 31.9938 14.4178 31.6998 14.4178V14.4222Z" fill="black"/>
<path d="M7.47541 14.4223C7.17713 14.4223 6.91775 14.2061 6.87452 13.9035C6.82264 13.5706 7.05176 13.2594 7.38463 13.2075C9.87036 12.8228 11.1456 10.7607 11.1586 10.7391C11.3315 10.4494 11.7076 10.3587 11.9973 10.5359C12.2869 10.7131 12.3777 11.0849 12.2005 11.3746C12.1356 11.4783 10.6096 13.9467 7.5662 14.418C7.53594 14.4223 7.50568 14.4266 7.47109 14.4266L7.47541 14.4223Z" fill="black"/>
</svg>
