<svg width="39" height="38" viewBox="0 0 39 38" fill="none" xmlns="http://www.w3.org/2000/svg">
<path d="M38.0527 18.71C38.0527 29.0419 29.6748 37.4199 19.3428 37.4199C9.01081 37.4199 0.632812 29.0419 0.632812 18.71C0.632812 8.37798 9.00648 0 19.3428 0C29.6791 0 38.0527 8.37798 38.0527 18.71Z" fill="#FFCE00"/>
<path d="M31.7069 16.2977C31.8971 16.4188 32.1565 16.2804 32.1565 16.0513C32.1565 14.6809 31.0498 13.5742 29.6837 13.5742C28.3176 13.5742 27.2109 14.6809 27.2109 16.047C27.2109 16.2804 27.466 16.4144 27.6605 16.2977C28.2485 15.9346 28.9402 15.7228 29.6837 15.7228C30.4273 15.7228 31.1189 15.9303 31.7069 16.2977Z" fill="black"/>
<path d="M11.0194 16.2977C11.2139 16.4188 11.469 16.2804 11.469 16.0513C11.469 14.6809 10.3623 13.5742 8.99621 13.5742C7.63014 13.5742 6.52344 14.6809 6.52344 16.047C6.52344 16.2804 6.77851 16.4144 6.97305 16.2977C7.56098 15.9346 8.25265 15.7228 8.99188 15.7228C9.73112 15.7228 10.4271 15.9303 11.015 16.2977H11.0194Z" fill="black"/>
<path d="M9.77867 21.5412C9.1821 21.7444 8.84058 22.3928 9.07402 22.9807C10.466 26.5083 14.5513 29.4782 19.3455 29.4782C24.1397 29.4782 28.2249 26.5083 29.6169 22.9807C29.8461 22.3928 29.5089 21.7444 28.9123 21.5412C23.1324 19.5872 15.5585 19.5872 9.77867 21.5412Z" fill="black"/>
<path d="M14.1953 28.2725C15.7257 29.029 17.4808 29.4786 19.3397 29.4786C21.1986 29.4786 22.9537 29.0247 24.4841 28.2725C23.0661 27.2047 21.2807 26.5605 19.3397 26.5605C17.3987 26.5605 15.6133 27.2047 14.1953 28.2725Z" fill="#CC342F"/>
</svg>
