<svg width="38" height="38" viewBox="0 0 38 38" fill="none" xmlns="http://www.w3.org/2000/svg">
<path d="M21.8796 37.1877C32.083 35.5552 39.0312 25.9603 37.3987 15.7568C35.7662 5.55337 26.1712 -1.39476 15.9678 0.237743C5.76431 1.87025 -1.18382 11.4652 0.44868 21.6686C2.08118 31.8721 11.6761 38.8202 21.8796 37.1877Z" fill="#FFCE00"/>
<path d="M29.7694 16.286C29.9639 16.407 30.219 16.2687 30.219 16.0396C30.219 14.6692 29.1123 13.5625 27.7462 13.5625C26.3801 13.5625 25.2734 14.6692 25.2734 16.0353C25.2734 16.2687 25.5285 16.4027 25.723 16.286C26.311 15.9229 27.0026 15.711 27.7462 15.711C28.4898 15.711 29.1814 15.9229 29.7694 16.286Z" fill="black"/>
<path d="M12.1287 16.286C12.3233 16.407 12.5783 16.2687 12.5783 16.0396C12.5783 14.6692 11.4716 13.5625 10.1056 13.5625C8.7395 13.5625 7.63281 14.6692 7.63281 16.0353C7.63281 16.2687 7.88786 16.4027 8.0824 16.286C8.67032 15.9229 9.36201 15.711 10.1056 15.711C10.8491 15.711 11.5408 15.9229 12.1287 16.286Z" fill="black"/>
<path d="M19.0269 27.2191C15.8971 27.2191 12.7975 26.0087 10.5279 23.8991C10.1561 23.5532 10.1345 22.9783 10.4803 22.6065C10.8219 22.2347 11.4011 22.2131 11.7729 22.5589C13.7096 24.3573 16.351 25.3905 19.0269 25.3905C21.7028 25.3905 24.1799 24.4222 26.095 22.7275C26.4754 22.3947 27.0504 22.4293 27.3876 22.8054C27.7205 23.1858 27.6859 23.7607 27.3098 24.0979C25.0359 26.1125 22.0919 27.2191 19.0312 27.2191H19.0269Z" fill="black"/>
</svg>
