<svg width="39" height="38" viewBox="0 0 39 38" fill="none" xmlns="http://www.w3.org/2000/svg">
<path d="M37.7013 23.028C40.0838 12.9731 33.864 2.89074 23.8092 0.50832C13.7544 -1.8741 3.67199 4.34562 1.28957 14.4004C-1.09285 24.4553 5.12687 34.5377 15.1817 36.9201C25.2365 39.3025 35.3189 33.0828 37.7013 23.028Z" fill="#FFCE00"/>
<path d="M28.0236 24.5146H10.9477C10.4419 24.5146 10.0312 24.1039 10.0312 23.5981C10.0312 23.0923 10.4419 22.6816 10.9477 22.6816H28.0236C28.5294 22.6816 28.9401 23.0923 28.9401 23.5981C28.9401 24.1039 28.5294 24.5146 28.0236 24.5146Z" fill="black"/>
<path d="M29.2637 15.5269C29.2637 16.6163 28.3818 17.5025 27.2881 17.5025C26.1944 17.5025 25.3125 16.6163 25.3125 15.5269C25.3125 14.4375 26.1987 13.5513 27.2881 13.5513C28.3775 13.5513 29.2637 14.4375 29.2637 15.5269Z" fill="black"/>
<path d="M13.6387 15.5269C13.6387 16.6163 12.7525 17.5025 11.6631 17.5025C10.5737 17.5025 9.6875 16.6163 9.6875 15.5269C9.6875 14.4375 10.5737 13.5513 11.6631 13.5513C12.7525 13.5513 13.6387 14.4375 13.6387 15.5269Z" fill="black"/>
</svg>
