<svg width="39" height="38" viewBox="0 0 39 38" fill="none" xmlns="http://www.w3.org/2000/svg">
<path d="M38.3609 18.71C38.3609 29.0419 29.9829 37.4199 19.651 37.4199C9.31897 37.4199 0.945312 29.0419 0.945312 18.71C0.945312 8.37798 9.31897 0 19.651 0C29.9829 0 38.3609 8.37366 38.3609 18.71V18.71Z" fill="#FFCE00"/>
<path d="M29.3279 20.9408C29.2717 20.9408 29.2155 20.9322 29.1549 20.9149L25.1821 19.7563C24.9443 19.6872 24.7714 19.4797 24.7455 19.2289C24.7195 18.9825 24.8492 18.7448 25.0697 18.628C25.0697 18.628 28.1606 17.0285 29.0858 16.5357C29.3841 16.3758 29.7515 16.4882 29.9115 16.7864C30.0714 17.0847 29.959 17.4522 29.6607 17.6121C29.142 17.8888 27.9402 18.5156 26.9848 19.0085L29.4964 19.7434C29.8207 19.8385 30.0066 20.1757 29.9115 20.4999C29.8336 20.7679 29.5916 20.9408 29.3279 20.9408Z" fill="black"/>
<path d="M9.96111 20.9408C9.6974 20.9408 9.45531 20.7679 9.3775 20.4999C9.28239 20.1757 9.46828 19.8385 9.79251 19.7434L12.3042 19.0085C11.3488 18.5113 10.147 17.8888 9.62823 17.6121C9.32995 17.4522 9.21755 17.0847 9.3775 16.7864C9.53745 16.4882 9.90491 16.3758 10.2032 16.5357C11.1283 17.0285 14.2193 18.628 14.2193 18.628C14.4397 18.7448 14.5694 18.9825 14.5478 19.2289C14.5219 19.4797 14.349 19.6872 14.1112 19.7563L10.1383 20.9149C10.0822 20.9322 10.026 20.9408 9.96543 20.9408H9.96111Z" fill="black"/>
<path d="M31.7658 13.2245C31.7356 13.2245 31.7053 13.2245 31.6707 13.2158C28.6273 12.7446 27.1013 10.2805 27.0408 10.1768C26.8679 9.88713 26.9586 9.51535 27.244 9.33811C27.5336 9.16087 27.9054 9.25597 28.0783 9.54129C28.0783 9.54129 29.3882 11.6293 31.8566 12.0097C32.1895 12.0616 32.4186 12.3729 32.3667 12.7057C32.3192 13.0083 32.0598 13.2245 31.7658 13.2245Z" fill="black"/>
<path d="M7.54573 13.2245C7.25176 13.2245 6.98806 13.0084 6.94483 12.7058C6.89295 12.3729 7.12207 12.0616 7.45494 12.0098C9.94067 11.625 11.2203 9.56294 11.2332 9.54132C11.4062 9.25168 11.7823 9.1609 12.0719 9.33814C12.3572 9.51106 12.4523 9.88716 12.2751 10.1768C12.2102 10.2806 10.6842 12.749 7.64083 13.2159C7.61057 13.2202 7.57599 13.2245 7.54573 13.2245V13.2245Z" fill="black"/>
<path d="M13.0689 29.5609C12.8397 29.5609 12.6149 29.4788 12.4377 29.3059L10.7906 27.7323C10.4232 27.3822 10.4145 26.8029 10.7604 26.4397C11.1105 26.0723 11.6898 26.0636 12.0529 26.4095L13.0645 27.3778L15.7232 24.8359C16.0777 24.4987 16.6353 24.4987 16.9855 24.8359L19.6441 27.3778L22.3028 24.8359C22.6573 24.4987 23.2149 24.4987 23.5651 24.8359L26.2281 27.3778L27.244 26.4095C27.6114 26.0593 28.1907 26.0723 28.5366 26.4397C28.8867 26.8029 28.8737 27.3865 28.5063 27.7323L26.8592 29.3059C26.5047 29.6431 25.9471 29.6431 25.5969 29.3059L22.9339 26.764L20.2753 29.3059C19.9208 29.6431 19.3631 29.6431 19.0087 29.3059L16.35 26.764L13.6914 29.3059C13.5141 29.4745 13.285 29.5609 13.0602 29.5609H13.0689Z" fill="black"/>
</svg>
